<svg width="24" height="24" viewBox="0 0 24 24" fill="none" xmlns="http://www.w3.org/2000/svg">
<mask id="mask0_588_906" style="mask-type:alpha" maskUnits="userSpaceOnUse" x="0" y="0" width="24" height="24">
<rect width="24" height="24" fill="#D9D9D9"/>
</mask>
<g mask="url(#mask0_588_906)">
<path d="M12 19.2691C11.5875 19.2691 11.2344 19.1222 10.9406 18.8285C10.6469 18.5347 10.5 18.1816 10.5 17.7691C10.5 17.3566 10.6469 17.0035 10.9406 16.7098C11.2344 16.416 11.5875 16.2691 12 16.2691C12.4125 16.2691 12.7656 16.416 13.0593 16.7098C13.3531 17.0035 13.5 17.3566 13.5 17.7691C13.5 18.1816 13.3531 18.5347 13.0593 18.8285C12.7656 19.1222 12.4125 19.2691 12 19.2691ZM12 13.4999C11.5875 13.4999 11.2344 13.353 10.9406 13.0592C10.6469 12.7655 10.5 12.4124 10.5 11.9999C10.5 11.5874 10.6469 11.2343 10.9406 10.9405C11.2344 10.6468 11.5875 10.4999 12 10.4999C12.4125 10.4999 12.7656 10.6468 13.0593 10.9405C13.3531 11.2343 13.5 11.5874 13.5 11.9999C13.5 12.4124 13.3531 12.7655 13.0593 13.0592C12.7656 13.353 12.4125 13.4999 12 13.4999ZM12 7.73064C11.5875 7.73064 11.2344 7.58376 10.9406 7.29001C10.6469 6.99628 10.5 6.64316 10.5 6.23066C10.5 5.81818 10.6469 5.46506 10.9406 5.17131C11.2344 4.87758 11.5875 4.73071 12 4.73071C12.4125 4.73071 12.7656 4.87758 13.0593 5.17131C13.3531 5.46506 13.5 5.81818 13.5 6.23066C13.5 6.64316 13.3531 6.99628 13.0593 7.29001C12.7656 7.58376 12.4125 7.73064 12 7.73064Z" fill="#1C1B1F"/>
</g>
</svg>
